<svg xmlns="http://www.w3.org/2000/svg" version="1.1" xmlns:xlink="http://www.w3.org/1999/xlink" xmlns:svgjs="http://svgjs.dev/svgjs" width="1500" height="1682" viewBox="0 0 1500 1682"><g transform="matrix(1,0,0,1,-2.3364485981305734,0)"><svg viewBox="0 0 321 360" data-background-color="#ffffff" preserveAspectRatio="xMidYMid meet" height="1682" width="1500" xmlns="http://www.w3.org/2000/svg" xmlns:xlink="http://www.w3.org/1999/xlink"><g id="tight-bounds" transform="matrix(1,0,0,1,0.5,0)"><svg viewBox="0 0 320 360" height="360" width="320"><g><svg></svg></g><g><svg viewBox="0 0 320 360" height="360" width="320"><g><path d="M20.961 227.22l3.726 4.658-1.863-6.056c-0.466-2.795-3.726 0.466-1.863 1.398M25.153 224.425c1.397 2.329 2.795 4.658 2.795 6.987 0 3.261 2.795 4.658 5.123 5.589-3.261-3.726-5.124-13.974-7.918-12.576M204.017 26.929c7.918 0 15.371-0.932 23.756 0.931 20.495 5.124 37.729 15.371 49.374 29.811l32.606 52.169c1.397 13.042 4.192 27.482 3.726 43.319 3.261 0 2.795-4.658 6.521-5.59-3.726 9.316-5.59 20.961-6.521 34.469-2.329-7.453 0-18.632 0.466-24.687-3.261 5.124-5.124 1.397-5.124-0.932 0.466-3.726-1.397-3.261-2.795-4.658-5.124-4.658-8.384-9.782-12.11-17.7 2.329-6.055 2.795-14.905-4.658-19.563-2.329-1.397-5.124-3.726-6.521-7.453-1.863-5.124-5.124-11.179-4.193-19.097 0.466-2.329-6.987 5.124-11.179 1.863-18.166-12.576-36.332-27.016-58.224-39.127-11.645 0-20.029-4.192-24.221-9.316-3.726-4.658-0.932-10.713 4.658-11.179 3.261 0 6.987-0.932 9.782 0.932 0.466-1.863 2.329-4.192 4.657-4.192M157.904 16.215l0.932 0.466c4.658 0.932 6.987 7.453 12.11 5.124 0 3.261 0.466 6.521-0.466 8.85-1.397 3.726-5.59 3.726-8.85 3.726-31.208-1.863-49.374 11.179-68.471 22.358-5.124 3.261-10.713 5.59-14.906 9.782-20.029 18.632-41.921 35.866-47.045 70.335l-4.192 38.195c-0.466 4.192-5.124 8.384-4.192 13.508l3.26 22.824c-3.261-3.261-5.124 0.932-4.192 2.795 0.466 1.397 2.329 6.055 5.124 1.863 3.726 6.987 7.453 20.495 12.576 26.55 15.837 18.632 36.332 35.4 53.101 52.169 4.192-0.932 7.453-0.932 8.384-3.727 1.397 2.795-1.397 5.59-3.726 6.056 7.453 4.658 15.837 8.85 27.016 9.781 14.44 0.932 27.948 3.261 40.524 6.522 6.521-1.863 13.042-2.795 20.029-3.261 2.329 0 3.726-3.726 6.521-4.658l0.466-4.658c2.795 4.192 2.329-1.397 0.466-4.192 3.261 2.795 4.192 5.124 5.589 6.987 0-1.397 3.726-6.521 3.727-0.466l0.931-6.055c1.397-0.932 1.863 5.124 3.261 0.931 1.397-4.192 4.192-0.932 6.987-2.329-0.932 1.863-0.466 5.59 2.794 3.261l3.727-3.261c2.329 5.59 6.055 3.261 7.918 2.329 20.495-13.042 40.99-28.413 60.553-43.784l-0.466 6.055 2.329-7.453c2.329 2.329 4.192 0.466 5.124-0.931 2.795-4.658 6.521-9.316 12.577-13.508-7.453 20.029-16.303 35.866-27.482 48.908l-4.658 5.59c0 3.261-0.932 7.453-4.658 7.918-1.863 0.466-5.59-0.932-8.384 1.863-1.397 1.863 3.261 5.59-0.466 2.795-3.261-2.329-6.521 0-10.248 0.932-2.795 0.932 1.863 3.726 2.795 5.589 0.932 1.863 1.863 3.726 1.398 6.056l-5.124-5.59c-6.055 3.261-9.782 9.316-14.906 13.974-2.329 1.863-1.397 5.124-1.397 7.918-3.261 0-6.987-0.932-8.85 0.932-1.397 1.863-0.932 4.658-0.932 7.453-4.658-0.466-5.124-7.453-9.315-6.056-4.192 0.932-8.85 1.397-12.577 3.727 2.795 5.59-4.658 2.329-3.726 3.26-6.987-4.192-13.042-7.453-20.495-4.658-15.837-5.124-35.4-2.795-49.84-0.931 0-2.329 0.466-4.658-0.466-5.124-0.932 2.329-3.726 1.397-3.26 1.397-8.85-6.055-17.7-9.782-27.016-14.905-8.384 0.932-16.303-3.261-18.632-5.59-6.521-6.055-13.974-2.795-20.029-4.192-13.042-3.261-17.7-16.769-19.098-26.084-0.932-4.658-4.658-6.521-6.055-6.056-6.055-19.563-15.371-37.263-22.824-55.429-1.863-4.658-1.397-9.316-1.397-14.44 2.329 0.932 4.658 0.466 4.192-2.794-2.329-15.371-7.918-27.016-13.974-38.195 3.261-15.837 3.726-34.469 11.179-48.443 6.521-12.576 18.632-19.098 27.016-29.811 2.795-3.726 2.795-8.85 5.59-12.11 9.316-9.316 18.632-19.098 28.879-27.482 4.658-3.726 10.247 0 17.234-1.397 2.329-8.384 11.645-15.837 20.495-13.508 3.726 0.932 11.179-8.85 13.508-9.782 3.726-1.397 1.863 3.726 1.863 6.987 8.85-6.987 20.961-10.713 32.14-14.906" fill="#ef5b2a" fill-rule="nonzero" stroke="none" stroke-width="1" stroke-linecap="butt" stroke-linejoin="miter" stroke-miterlimit="10" stroke-dasharray="" stroke-dashoffset="0" font-family="none" font-weight="none" font-size="none" text-anchor="none" style="mix-blend-mode: normal" data-fill-palette-color="tertiary"></path></g><g transform="matrix(1,0,0,1,64,92.94524495677233)"><svg viewBox="0 0 192 174.10951008645534" height="174.10951008645534" width="192"><g><svg viewBox="0 0 192 174.10951008645534" height="174.10951008645534" width="192"><g><svg viewBox="0 0 192 174.10951008645534" height="174.10951008645534" width="192"><g><svg viewBox="0 0 192 174.10951008645534" height="174.10951008645534" width="192"><g id="textblocktransform"><svg viewBox="0 0 192 174.10951008645534" height="174.10951008645534" width="192" id="textblock"><g><svg viewBox="0 0 192 174.10951008645534" height="174.10951008645534" width="192"><g transform="matrix(1,0,0,1,0,0)"><svg width="192" viewBox="1.75 -36.05 52.05 47.199999999999996" height="174.10951008645534" data-palette-color="#ef5b2a"><path d="M38.6-18.8Q38.6-16.85 38.1-14.95 37.6-13.05 36.98-11.3 36.35-9.55 35.85-7.93 35.35-6.3 35.35-4.8L35.35-4.8Q35.35-3.8 35.45-2.48 35.55-1.15 35.8 0L35.8 0 30.2 0Q30.05-0.85 30.03-1.58 30-2.3 30-3L30-3Q30-4.95 30.45-6.85 30.9-8.75 31.45-10.6 32-12.45 32.45-14.2 32.9-15.95 32.9-17.55L32.9-17.55Q32.9-18.75 32.38-19.58 31.85-20.4 30.5-20.4L30.5-20.4Q29.4-20.4 28.25-19.38 27.1-18.35 26.1-16.73 25.1-15.1 24.3-13.1 23.5-11.1 23.15-9.1L23.15-9.1 21.4 0 15.8 0 18.3-12.6Q18.6-14.05 18.75-15.43 18.9-16.8 18.9-17.55L18.9-17.55Q18.9-18.75 18.38-19.58 17.85-20.4 16.5-20.4L16.5-20.4Q15.4-20.4 14.25-19.38 13.1-18.35 12.08-16.73 11.05-15.1 10.25-13.08 9.45-11.05 9.1-9.05L9.1-9.05 7.35 0 1.75 0 4.3-12.6Q4.6-14.05 4.73-15.3 4.85-16.55 4.85-17.55L4.85-17.55Q4.85-20.3 4.35-21.55 3.85-22.8 3.6-23.2L3.6-23.2 8.15-25Q8.7-24.3 9.08-23.3 9.45-22.3 9.45-20.75L9.45-20.75Q9.45-19.7 9.28-18.5 9.1-17.3 9-16.15L9-16.15 9.75-18.05Q11.1-21.5 13.33-23.2 15.55-24.9 18.25-24.9L18.25-24.9Q21.2-24.9 22.73-23.35 24.25-21.8 24.35-19.2L24.35-19.2Q27.15-24.9 32.3-24.9L32.3-24.9Q35.45-24.9 37.02-23.25 38.6-21.6 38.6-18.8L38.6-18.8ZM46.2-24.5L51.65-24.5 47.05-1.25Q46.5 1.45 45.5 3.35 44.5 5.25 43.1 6.63 41.7 8 39.92 9.05 38.15 10.1 36.05 11.15L36.05 11.15 34.1 7.35Q35.75 6.6 36.97 5.85 38.2 5.1 39.1 4.2 40 3.3 40.6 2.13 41.2 0.95 41.5-0.65L41.5-0.65 46.2-24.5ZM50.7-36.05Q52.3-36.05 53.05-35.18 53.8-34.3 53.8-32.8L53.8-32.8Q53.8-31.35 52.82-30.23 51.85-29.1 50.1-29.1L50.1-29.1Q48.5-29.1 47.77-30 47.05-30.9 47.05-32.25L47.05-32.25Q47.05-33.8 48-34.93 48.95-36.05 50.7-36.05L50.7-36.05Z" opacity="1" transform="matrix(1,0,0,1,0,0)" fill="#ef5b2a" class="wordmark-text-0" data-fill-palette-color="primary" id="text-0"></path></svg></g></svg></g></svg></g></svg></g><g></g></svg></g></svg></g></svg></g></svg></g><defs></defs></svg><rect width="320" height="360" fill="none" stroke="none" visibility="hidden"></rect></g></svg></g></svg>